:FULLY-SPECIFIED
:FORCE-ALL-JOINTS-BE-3DOF
:DEGREES
816
root -5.18317 14.7859 -39.7049 454.714 -72.3173 271.441
lfemur -49.8155 1.77297 9.22471
ltibia 35.2421 0 0
lfoot 8.60554 6.56013 0
ltoes -2.65906 0 0
rfemur -26.4349 3.81967 20.2667
rtibia 73.0688 0 0
rfoot -25.8437 -26.0068 0
rtoes -32.2019 0 0
lowerback 17.1685 3.01448 3.00932
upperback 0.292934 4.72459 1.89739
thorax -9.25027 2.14072 -0.794728
lowerneck -2.69563 11.5719 4.82687
upperneck 1.05237 15.471 -7.22685
head 1.78183 7.65509 -2.65321
lclavicle 2.59838e-14 1.17251e-14 0
lhumerus 63.9239 -35.1596 35.7186
lradius 84.8459 0 0
lwrist 20.2466 0 0
lhand -8.2288 28.7324 0
lfingers 7.12502 0 0
lthumb 17.6951 58.1085 0
rclavicle 2.59838e-14 1.17251e-14 0
rhumerus 16.3333 33.1648 -48.3284
rradius 71.4732 0 0
rwrist -2.58603 0 0
rhand 3.83688 -32.3819 0
rfingers 7.12502 0 0
rthumb 29.2186 -59.7282 0
817
root -5.04547 14.7994 -39.7255 451.091 -71.9212 275.111
lfemur -49.4109 2.47876 9.24211
ltibia 36.0986 0 0
lfoot 8.66875 7.15904 0
ltoes -2.46275 0 0
rfemur -26.8981 2.8958 20.1828
rtibia 73.1104 0 0
rfoot -25.903 -26.0653 0
rtoes -31.5952 0 0
lowerback 17.2067 3.00135 3.01097
upperback 0.252324 4.71218 1.88756
thorax -9.31632 2.13324 -0.806124
lowerneck -2.76148 11.5414 4.84793
upperneck 1.1712 15.4343 -7.25328
head 1.83482 7.63379 -2.65965
lclavicle 2.70799e-14 1.15538e-14 0
lhumerus 63.9951 -35.9069 34.9625
lradius 87.3296 0 0
lwrist 19.6453 0 0
lhand -8.20537 28.5538 0
lfingers 7.12502 0 0
lthumb 17.7177 57.9308 0
rclavicle 2.70799e-14 1.15538e-14 0
rhumerus 17.9545 34.9747 -47.073
rradius 72.4401 0 0
rwrist -1.11986 0 0
rhand 4.46502 -31.5528 0
rfingers 7.12502 0 0
rthumb 29.8172 -58.7853 0
818
root -4.90792 14.8128 -39.7455 447.44 -71.5118 278.809
lfemur -49.0086 3.20203 9.25562
ltibia 36.9809 0 0
lfoot 8.72518 7.75807 0
ltoes -2.26785 0 0
rfemur -27.3506 1.95706 20.094
rtibia 73.1383 0 0
rfoot -25.9626 -26.1251 0
rtoes -30.9808 0 0
lowerback 17.243 2.98728 3.01451
upperback 0.210468 4.69884 1.87915
thorax -9.38263 2.12524 -0.816791
lowerneck -2.82839 11.508 4.86766
upperneck 1.29233 15.3938 -7.2765
head 1.88831 7.61063 -2.66489
lclavicle 2.81754e-14 1.1403e-14 0
lhumerus 64.0603 -36.6385 34.2294
lradius 89.8047 0 0
lwrist 18.9948 0 0
lhand -8.19321 28.3758 0
lfingers 7.12502 0 0
lthumb 17.7295 57.7539 0
rclavicle 2.81754e-14 1.1403e-14 0
rhumerus 19.5491 36.7959 -45.8277
rradius 73.4343 0 0
rwrist 0.333536 0 0
rhand 5.09734 -30.7126 0
rfingers 7.12502 0 0
rthumb 30.4198 -57.8305 0
819
root -4.77069 14.8258 -39.7647 443.77 -71.0898 282.524
lfemur -48.6097 3.94038 9.26537
ltibia 37.8855 0 0
lfoot 8.77482 8.35528 0
ltoes -2.07496 0 0
rfemur -27.7913 1.00666 20.0006
rtibia 73.1527 0 0
rfoot -26.022 -26.1858 0
rtoes -30.3606 0 0
lowerback 17.2772 2.97231 3.01983
upperback 0.167506 4.68458 1.87214
thorax -9.44902 2.11673 -0.826696
lowerneck -2.89615 11.4721 4.88599
upperneck 1.41538 15.3498 -7.29649
head 1.94214 7.58574 -2.66894
lclavicle 2.92648e-14 1.12714e-14 0
lhumerus 64.1179 -37.3523 33.5201
lradius 92.2639 0 0
lwrist 18.299 0 0
lhand -8.19229 28.1987 0
lfingers 7.12502 0 0
lthumb 17.7305 57.5781 0
rclavicle 2.92648e-14 1.12714e-14 0
rhumerus 21.1121 38.6226 -44.5964
rradius 74.4524 0 0
rwrist 1.76941 0 0
rhand 5.73141 -29.864 0
rfingers 7.12502 0 0
rthumb 31.024 -56.867 0
820
root -4.63395 14.8386 -39.783 440.09 -70.656 286.249
lfemur -48.2151 4.69142 9.27147
ltibia 38.8091 0 0
lfoot 8.81768 8.94875 0
ltoes -1.8847 0 0
rfemur -28.219 0.0478197 19.9031
rtibia 73.1534 0 0
rfoot -26.0811 -26.2473 0
rtoes -29.7363 0 0
lowerback 17.3093 2.95646 3.02684
upperback 0.123583 4.66944 1.8665
thorax -9.51527 2.10774 -0.835807
lowerneck -2.96456 11.4337 4.90289
upperneck 1.53996 15.3025 -7.31322
head 1.99616 7.55924 -2.6718
lclavicle 3.03421e-14 1.11577e-14 0
lhumerus 64.1662 -38.0467 32.8356
lradius 94.6997 0 0
lwrist 17.5618 0 0
lhand -8.20254 28.0231 0
lfingers 7.12502 0 0
lthumb 17.7206 57.4041 0
rclavicle 3.03421e-14 1.11577e-14 0
rhumerus 22.6388 40.449 -43.3829
rradius 75.4909 0 0
rwrist 3.18299 0 0
rhand 6.36477 -29.0096 0
rfingers 7.12502 0 0
rthumb 31.6276 -55.8979 0
821
root -4.49788 14.8511 -39.8003 436.407 -70.2109 289.973
lfemur -47.826 5.45276 9.27405
ltibia 39.7483 0 0
lfoot 8.85374 9.53654 0
ltoes -1.6977 0 0
rfemur -28.6323 -0.91625 19.802
rtibia 73.1407 0 0
rfoot -26.1397 -26.3096 0
rtoes -29.11 0 0
lowerback 17.3393 2.93978 3.03545
upperback 0.07884 4.65343 1.86222
thorax -9.58119 2.09828 -0.844092
lowerneck -3.03342 11.3931 4.91831
upperneck 1.66569 15.2522 -7.32669
head 2.0502 7.53126 -2.67347
lclavicle 3.14018e-14 1.10605e-14 0
lhumerus 64.2037 -38.7199 32.1766
lradius 97.1046 0 0
lwrist 16.7872 0 0
lhand -8.22393 27.8494 0
lfingers 7.12502 0 0
lthumb 17.7 57.2322 0
rclavicle 3.14018e-14 1.10605e-14 0
rhumerus 24.1242 42.2694 -42.1912
rradius 76.5464 0 0
rwrist 4.56953 0 0
rhand 6.99499 -28.1522 0
rfingers 7.12502 0 0
rthumb 32.2281 -54.9262 0
822
root -4.36265 14.8632 -39.8166 432.73 -69.7555 293.689
lfemur -47.4433 6.22201 9.27321
ltibia 40.6997 0 0
lfoot 8.88301 10.1167 0
ltoes -1.51457 0 0
rfemur -29.0301 -1.88233 19.6975
rtibia 73.1145 0 0
rfoot -26.1974 -26.3723 0
rtoes -28.4834 0 0
lowerback 17.3669 2.9223 3.04554
upperback 0.0334206 4.63658 1.85928
thorax -9.64657 2.08838 -0.851517
lowerneck -3.10253 11.3505 4.9322
upperneck 1.7922 15.1991 -7.33687
head 2.1041 7.50194 -2.67394
lclavicle 3.24379e-14 1.09783e-14 0
lhumerus 64.2288 -39.37 31.5439
lradius 99.471 0 0
lwrist 15.9789 0 0
lhand -8.2564 27.6782 0
lfingers 7.12502 0 0
lthumb 17.6687 57.063 0
rclavicle 3.24379e-14 1.09783e-14 0
rhumerus 25.5637 44.0779 -41.0251
rradius 77.6156 0 0
rwrist 5.92426 0 0
rhand 7.61963 -27.2945 0
rfingers 7.12502 0 0
rthumb 32.8234 -53.9551 0
